<svg id="visual" viewBox="0 0 900 600" width="900" height="600" xmlns="http://www.w3.org/2000/svg" xmlns:xlink="http://www.w3.org/1999/xlink" version="1.1"><rect x="0" y="0" width="900" height="600" fill="#F9F7F7"></rect><defs><linearGradient id="grad1_0" x1="33.3%" y1="100%" x2="100%" y2="0%"><stop offset="20%" stop-color="#f9f7f7" stop-opacity="1"></stop><stop offset="80%" stop-color="#f9f7f7" stop-opacity="1"></stop></linearGradient></defs><defs><linearGradient id="grad2_0" x1="0%" y1="100%" x2="66.7%" y2="0%"><stop offset="20%" stop-color="#f9f7f7" stop-opacity="1"></stop><stop offset="80%" stop-color="#f9f7f7" stop-opacity="1"></stop></linearGradient></defs><g transform="translate(900, 600)"><path d="M-243.4 0C-240.8 -49.2 -238.3 -98.4 -210.8 -121.7C-183.3 -145 -130.8 -142.5 -91.5 -158.5C-52.2 -174.5 -26.1 -208.9 0 -243.4L0 0Z" fill="#DDD0D0"></path></g><g transform="translate(0, 0)"><path d="M243.4 0C240 47.7 236.5 95.4 210.8 121.7C185 148 136.9 153 98 169.7C59.1 186.5 29.6 214.9 0 243.4L0 0Z" fill="#DDD0D0"></path></g></svg>